#!OML:ASF F:\VICON\USERDATA\INSTALL\rory3\rory3.ASF
:FULLY-SPECIFIED
:DEGREES
148
root -1.60237 14.4309 33.5757 13.2708 0.443612 4.55332
lowerback -9.89832 -4.32374 -0.937808
upperback -7.81089 -5.6745 1.5459
thorax -2.35908 -2.78456 1.68099
lowerneck -14.8234 -0.953109 -5.06256
upperneck 21.2512 0.176894 -1.15283
head 9.13974 -0.466558 0.468917
rclavicle 3.02153e-014 -8.74653e-015
rhumerus -48.7354 14.7968 -93.0649
rradius 48.6532
rwrist 7.70681
rhand -9.58352 109.781
rfingers 7.12502
rthumb 16.3847 139.109
lclavicle 3.02153e-014 -8.74653e-015
lhumerus -13.8131 -44.6361 97.4214
lradius 84.1437
lwrist 29.7735
lhand -33.0666 -37.8479
lfingers 7.12502
lthumb -6.27846 -7.96091
rfemur -73.9462 -1.55777 24.0757
rtibia 52.3113
rfoot 15.8685 -5.32955
rtoes 1.9505
lfemur 8.50309 2.88655 -25.3776
ltibia 60.6115
lfoot 3.3776 -4.03223
ltoes -25.9468
149
root -1.73268 14.31 34.0215 13.9218 -2.37518 3.41945
lowerback -10.4601 -3.27364 -1.41507
upperback -7.98555 -4.24238 1.95121
thorax -2.22684 -2.03835 2.45664
lowerneck -13.1829 -0.952629 -6.58294
upperneck 19.7572 -0.0570088 0.835637
head 8.33042 -0.444726 1.36606
rclavicle 9.0447e-015 6.36111e-015
rhumerus -47.4127 16.2407 -93.8867
rradius 48.2104
rwrist 8.00663
rhand -9.26054 109.539
rfingers 7.12502
rthumb 16.6956 138.841
lclavicle 9.0447e-015 6.36111e-015
lhumerus -12.405 -45.6201 96.9288
lradius 85.6717
lwrist 29.5827
lhand -32.9004 -36.804
lfingers 7.12502
lthumb -6.11801 -6.91233
rfemur -74.4075 2.11825 25.9248
rtibia 54.2281
rfoot 11.9387 -8.69795
rtoes 10.517
lfemur 4.92542 6.74487 -23.5557
ltibia 66.2429
lfoot 2.09588 -4.47774
ltoes -26.0208
150
root -1.74062 14.1835 34.4987 12.9703 -2.25583 4.8634
lowerback -10.7565 -3.11776 -1.90507
upperback -7.30177 -3.9913 1.00841
thorax -1.39355 -1.92716 1.73447
lowerneck -12.6546 -1.20253 -7.22126
upperneck 18.8548 -0.529179 1.86889
head 7.95282 -0.592457 1.76061
rclavicle 4.3832e-014 7.95139e-015
rhumerus -45.2496 17.4512 -94.5667
rradius 47.8279
rwrist 7.61644
rhand -9.39316 109.418
rfingers 7.12502
rthumb 16.5679 138.73
lclavicle 4.3832e-014 7.95139e-015
lhumerus -10.4574 -46.7212 95.782
lradius 87.1538
lwrist 29.2048
lhand -32.486 -38.525
lfingers 7.12502
lthumb -5.718 -8.62217
rfemur -73.6183 0.270015 26.7231
rtibia 58.128
rfoot 5.90953 -8.95035
rtoes 5.38086
lfemur 4.12935 7.19358 -24.5673
ltibia 70.8214
lfoot 0.683936 -3.38069
ltoes -26.723
151
root -1.76839 14.133 34.9328 12.3056 -2.72122 5.59858
lowerback -8.21276 -2.97474 -2.48399
upperback -8.52171 -3.84506 0.863252
thorax -4.05467 -1.78802 2.10405
lowerneck -13.7366 -1.76797 -6.43321
upperneck 21.2502 -1.02964 0.221106
head 8.98012 -0.991253 1.02551
rclavicle 6.06293e-015 -1.66979e-014
rhumerus -45.9082 19.5102 -95.6654
rradius 48.0333
rwrist 7.06715
rhand -9.47441 109.432
rfingers 7.12502
rthumb 16.4897 138.752
lclavicle 6.06293e-015 -1.66979e-014
lhumerus -12.7019 -46.1395 97.9437
lradius 88.7505
lwrist 28.1188
lhand -31.7839 -39.7369
lfingers 7.12502
lthumb -5.04011 -9.81688
rfemur -73.4443 0.0162031 26.8738
rtibia 61.7237
rfoot 3.75235 -10.0901
rtoes 1.03433
lfemur 2.15226 8.40307 -24.7455
ltibia 75.8513
lfoot -0.209896 -2.56248
ltoes -26.5116
152
root -1.82129 14.0984 35.3624 11.8277 -3.73789 5.69502
lowerback -9.18428 -2.26711 -2.36733
upperback -7.19403 -2.87056 0.409251
thorax -2.19506 -1.35196 1.54345
lowerneck -13.6602 -2.21112 -7.4313
upperneck 19.3309 -1.75237 1.68437
head 8.35759 -1.21223 1.59839
rclavicle -3.75703e-014 6.36111e-015
rhumerus -42.0115 20.7125 -95.3483
rradius 47.5119
rwrist 7.5574
rhand -9.3415 109.347
rfingers 7.12502
rthumb 16.6177 138.655
lclavicle -3.75703e-014 6.36111e-015
lhumerus -9.47492 -47.2453 95.892
lradius 90.1653
lwrist 27.34
lhand -32.2783 -39.5214
lfingers 7.12502
lthumb -5.51746 -9.61325
rfemur -73.9238 2.02317 25.8177
rtibia 65.901
rfoot 0.544985 -12.2787
rtoes 8.03941
lfemur -0.263946 10.2541 -24.0403
ltibia 80.8209
lfoot -1.25765 -2.00258
ltoes -25.6925
153
root -1.85323 13.9385 35.7432 11.0343 -4.28011 4.87565
lowerback -7.48873 -1.83058 -1.54544
upperback -7.22329 -2.37254 0.592006
thorax -3.20066 -1.11817 1.3679
lowerneck -11.9597 -2.04894 -8.78163
upperneck 17.6211 -1.72654 3.34367
head 7.5061 -1.10909 2.37556
rclavicle -1.40143e-014 -1.59028e-014
rhumerus -40.2856 23.0255 -95.6455
rradius 46.9415
rwrist 7.60458
rhand -9.52412 108.824
rfingers 7.12502
rthumb 16.4419 138.147
lclavicle -1.40143e-014 -1.59028e-014
lhumerus -10.1083 -47.0001 96.666
lradius 91.7759
lwrist 26.0912
lhand -33.0374 -39.3954
lfingers 7.12502
lthumb -6.25028 -9.50763
rfemur -74.0518 4.13119 25.7748
rtibia 69.5801
rfoot -1.98441 -14.2639
rtoes 10.2024
lfemur -2.3581 11.6838 -22.0999
ltibia 86.5269
lfoot -3.21395 -1.49478
ltoes -24.2646
154
root -1.89272 13.761 36.1021 9.7799 -5.42438 3.84786
lowerback -5.86609 -1.41231 -0.51602
upperback -6.62638 -1.86779 0.657391
thorax -3.51879 -0.9056 0.917028
lowerneck -13.7035 -2.36743 -7.91882
upperneck 18.4783 -2.01423 2.45981
head 8.10326 -1.27595 1.90555
rclavicle 2.5345e-014 2.06736e-014
rhumerus -37.4791 25.8271 -96.0508
rradius 46.098
rwrist 7.52863
rhand -9.24824 108.234
rfingers 7.12502
rthumb 16.7075 137.535
lclavicle 2.5345e-014 2.06736e-014
lhumerus -10.3066 -46.2886 96.1993
lradius 93.4686
lwrist 24.6406
lhand -33.5104 -39.6202
lfingers 7.12502
lthumb -6.70697 -9.74641
rfemur -73.1488 6.5681 26.4266
rtibia 72.5626
rfoot -3.96065 -15.9693
rtoes 9.44237
lfemur -3.89594 13.522 -19.6985
ltibia 92.1918
lfoot -5.69535 -1.6271
ltoes -22.6478
155
root -1.93843 13.7034 36.4443 10.6008 -6.54154 -2.06144
lowerback -4.97681 -0.697135 4.8376
upperback -6.6332 -0.975017 2.44877
thorax -4.12589 -0.648811 -0.18133
lowerneck -14.0589 -2.28252 -7.82885
upperneck 18.2117 -1.83801 2.23796
head 8.06564 -1.20062 1.83273
rclavicle 2.6339e-014 -2.14687e-014
rhumerus -34.9295 29.1984 -95.9228
rradius 45.3602
rwrist 7.4671
rhand -8.67232 107.665
rfingers 7.12502
rthumb 17.2618 136.919
lclavicle 2.6339e-014 -2.14687e-014
lhumerus -11.3873 -45.0031 96.4998
lradius 95.2178
lwrist 23.1937
lhand -34.0236 -40.0373
lfingers 7.12502
lthumb -7.20231 -10.1798
rfemur -71.4807 10.0576 32.6432
rtibia 73.5122
rfoot -5.4735 -18.1594
rtoes 7.90312
lfemur -7.58062 16.7814 -10.4946
ltibia 98.3287
lfoot -7.61427 -4.54569
ltoes -17.1548
156
root -1.96427 13.6597 36.7962 11.9909 -6.9321 -6.70477
lowerback -2.44084 -0.490564 8.88657
upperback -8.55295 -0.26011 4.13988
thorax -7.71414 -0.586693 -0.562623
lowerneck -13.0798 -1.91027 -7.72582
upperneck 19.157 -1.30971 1.61372
head 8.17605 -1.03093 1.67474
rclavicle -2.21645e-014 5.24792e-014
rhumerus -35.9381 32.7745 -97.1712
rradius 45.0248
rwrist 7.36653
rhand -8.29727 107.393
rfingers 7.12502
rthumb 17.6228 136.614
lclavicle -2.21645e-014 5.24792e-014
lhumerus -16.8848 -42.8822 99.8968
lradius 97.235
lwrist 22.0611
lhand -34.6335 -40.1421
lfingers 7.12502
lthumb -7.791 -10.3057
rfemur -70.407 11.7809 37.8592
rtibia 74.3271
rfoot -7.22614 -19.5108
rtoes 8.10478
lfemur -12.233 19.2144 -3.20325
ltibia 103.911
lfoot -9.51018 -6.4344
ltoes -15.1015
157
root -1.99244 13.6427 37.2158 11.9791 -7.07486 -6.71623
lowerback -3.02747 -0.385518 9.08035
upperback -8.18733 -0.22178 4.15242
thorax -6.97265 -0.548811 -0.678731
lowerneck -12.3214 -1.7377 -8.08856
upperneck 18.0568 -1.14741 2.01287
head 7.6694 -0.91804 1.88148
rclavicle -1.94809e-014 1.03368e-014
rhumerus -33.091 35.4374 -96.4128
rradius 44.4842
rwrist 7.53307
rhand -8.21782 107.418
rfingers 7.12502
rthumb 17.6992 136.632
lclavicle -1.94809e-014 1.03368e-014
lhumerus -18.3372 -42.0025 100.15
lradius 98.8021
lwrist 21.8326
lhand -35.1967 -39.7953
lfingers 7.12502
lthumb -8.33459 -9.97969
rfemur -69.2364 10.6209 38.7632
rtibia 75.7385
rfoot -9.87039 -19.3907
rtoes 8.74385
lfemur -15.7444 19.1048 -3.26492
ltibia 107.629
lfoot -10.3976 -6.23565
ltoes -12.3966
158
root -2.02259 13.6546 37.543 11.5343 -6.39234 -4.34476
lowerback -2.67024 -0.748534 6.8863
upperback -7.87367 -0.744638 3.54665
thorax -6.80451 -0.680398 -0.0978275
lowerneck -14.7792 -2.31683 -6.55527
upperneck 19.2906 -1.65594 0.0386704
head 8.52414 -1.26903 0.902102
rclavicle -3.53837e-014 3.97569e-014
rhumerus -29.6388 37.4909 -95.0002
rradius 44.0053
rwrist 8.44072
rhand -8.19277 107.465
rfingers 7.12502
rthumb 17.7233 136.677
lclavicle -3.53837e-014 3.97569e-014
lhumerus -19.2114 -41.3999 99.9435
lradius 100.109
lwrist 22.1985
lhand -35.6135 -39.4188
lfingers 7.12502
lthumb -8.73688 -9.61964
rfemur -68.9451 7.6641 36.9811
rtibia 77.3984
rfoot -12.3478 -18.4404
rtoes 7.51677
lfemur -20.8011 16.8617 -7.84661
ltibia 110.931
lfoot -10.3265 -2.90369
ltoes -13.0943
159
root -2.1003 13.6584 37.8729 11.6389 -5.9364 -4.77744
lowerback -3.36061 -0.737887 6.5945
upperback -6.94827 -0.850861 3.74038
thorax -5.40331 -0.663583 0.226169
lowerneck -13.1452 -2.19482 -7.86333
upperneck 16.0858 -1.83314 2.49844
head 7.20341 -1.13977 1.92004
rclavicle 4.48756e-014 -2.22639e-014
rhumerus -24.9707 38.9884 -92.6597
rradius 43.725
rwrist 9.67178
rhand -8.12385 107.408
rfingers 7.12502
rthumb 17.7897 136.614
lclavicle 4.48756e-014 -2.22639e-014
lhumerus -18.909 -41.2328 98.8836
lradius 101.101
lwrist 23.052
lhand -35.776 -39.1541
lfingers 7.12502
lthumb -8.89361 -9.36155
rfemur -67.8959 7.29498 37.9042
rtibia 78.1611
rfoot -14.1353 -18.876
rtoes 6.3208
lfemur -26.0271 17.5808 -6.07896
ltibia 114.452
lfoot -11.2566 -3.03493
ltoes -15.2595
160
root -2.23298 13.6214 38.1989 12.2124 -5.54794 -5.88012
lowerback -3.97073 -0.699613 5.69389
upperback -6.5945 -0.851611 4.46154
thorax -4.64588 -0.580552 1.45351
lowerneck -12.959 -2.4001 -7.88732
upperneck 15.021 -2.18876 2.89889
head 6.84791 -1.25844 2.0155
rclavicle 2.94201e-014 -2.46493e-014
rhumerus -21.3265 40.201 -90.5622
rradius 43.6808
rwrist 10.9217
rhand -7.97422 107.254
rfingers 7.12502
rthumb 17.9336 136.447
lclavicle 2.94201e-014 -2.46493e-014
lhumerus -19.7911 -40.9646 98.8432
lradius 101.944
lwrist 23.9661
lhand -35.7227 -38.6282
lfingers 7.12502
lthumb -8.84219 -8.83347
rfemur -67.3059 8.03513 39.5044
rtibia 78.6809
rfoot -15.6782 -19.7721
rtoes 6.52562
lfemur -32.0774 19.6126 -2.74929
ltibia 118.046
lfoot -12.3772 -3.96206
ltoes -15.5719
161
root -2.30501 13.6159 38.5134 12.1279 -4.16682 -8.44076
lowerback -2.5649 -0.892066 7.67479
upperback -6.86106 -0.90753 5.26336
thorax -5.78548 -0.706848 1.24338
lowerneck -15.5468 -3.15284 -5.9259
upperneck 17.6526 -2.96133 0.272879
head 8.14263 -1.78312 0.720576
rclavicle 2.13694e-015 -2.06736e-014
rhumerus -19.1969 41.3874 -89.4172
rradius 43.9274
rwrist 11.7507
rhand -7.7742 107.116
rfingers 7.12502
rthumb 18.1261 136.292
lclavicle 2.13694e-015 -2.06736e-014
lhumerus -22.1991 -40.472 99.6376
lradius 102.654
lwrist 24.7642
lhand -35.5091 -38.0672
lfingers 7.12502
lthumb -8.63605 -8.26381
rfemur -65.5169 7.08754 42.841
rtibia 78.6577
rfoot -17.7333 -19.8821
rtoes 7.35485
lfemur -37.1461 20.3745 1.85645
ltibia 120.867
lfoot -14.1043 -5.14548
ltoes -13.9664
